<?xml version="1.0" encoding="UTF-8"?><svg xmlns="http://www.w3.org/2000/svg" xmlns:xlink="http://www.w3.org/1999/xlink" height="83.4" preserveAspectRatio="xMidYMid meet" version="1.0" viewBox="-0.0 -0.4 202.0 83.4" width="202.0" zoomAndPan="magnify"><g id="change1_1"><path d="M201.999,21.88l-0.041-0.001c0-0.005-0.001-0.01-0.001-0.015l0.057-1.016h-0.196c-0.322-1.66-1.095-3.172-2.23-4.311 l-14.093-14.16l-0.68,0.675l0.662-0.694l-0.06,0.06l0.058-0.061l-1.414,1.414l0.247-0.235l-0.24,0.242l0.649-0.63l-0.642,0.638 c0.001,0,0.001,0.001,0.002,0.001l0.001,0.001c0.146,0.148,0.282,0.306,0.413,0.471c0.909,1.148,1.401,2.673,1.386,4.292 l-0.21,19.042c-0.045,4.503-3.699,8.802-8.146,9.583L9.603,66.736c-2.222,0.392-4.344-0.22-5.772-1.646L3.82,65.08l-1.418,1.41 l14.111,14.179c1.517,1.524,3.6,2.364,5.864,2.364c0.557,0,1.124-0.05,1.683-0.149l167.918-29.558 c5.349-0.937,9.745-6.11,9.8-11.532l0.208-19.035c0-0.001,0-0.003,0-0.005c-0.001-0.001-0.001-0.003,0-0.004 c0-0.006,0-0.012,0-0.018v0c0-0.001,0-0.003,0-0.004c0-0.001,0-0.001,0-0.002c0-0.001,0-0.002,0.001-0.004h-0.001 c0.001-0.002,0.001-0.004,0.001-0.007c0-0.006,0-0.011,0-0.017c0-0.002,0-0.005,0-0.007c0-0.005,0-0.009,0-0.014 c0-0.015,0-0.03,0-0.045l0.002-0.104h-0.003c0,0,0-0.001,0-0.001L201.999,21.88z"/></g><g id="change2_1"><path d="M179.612,0.997c4.16,0,7.312,3.142,7.265,7.566l-0.21,19.042c-0.054,4.947-4.089,9.7-8.972,10.557 L9.776,67.72c-0.515,0.091-1.02,0.135-1.51,0.135c-4.156,0-7.315-3.143-7.266-7.574l0.209-19.042 c0.054-4.947,4.097-9.699,8.973-10.558l167.918-29.55C178.615,1.04,179.122,0.997,179.612,0.997z" fill="#FFE300"/></g><g id="change1_2"><path d="M8.267,68.855c-2.273,0-4.362-0.846-5.881-2.382C0.821,64.892-0.026,62.688,0,60.27l0.209-19.042 c0.06-5.418,4.456-10.591,9.799-11.532l167.919-29.55c2.854-0.506,5.674,0.319,7.564,2.229c1.563,1.58,2.41,3.781,2.385,6.199 l-0.21,19.042c-0.059,5.419-4.454,10.592-9.799,11.531L9.95,68.705C9.386,68.804,8.82,68.855,8.267,68.855z M179.612,1.997 c-0.44,0-0.891,0.04-1.338,0.119L10.355,31.666c-4.367,0.769-8.098,5.158-8.146,9.583L2,60.292 c-0.021,1.881,0.621,3.576,1.807,4.775c1.427,1.443,3.56,2.063,5.795,1.669l167.919-29.559c4.443-0.78,8.097-5.079,8.146-9.583 l0.21-19.042c0.02-1.878-0.622-3.573-1.807-4.77C182.931,2.63,181.348,1.997,179.612,1.997z"/></g><g id="change1_3"><path d="M18.661,56.023c-0.759,0.135-1.393-0.014-1.901-0.443c-0.509-0.429-0.763-1.049-0.763-1.857V42.894 c0-0.338,0.066-0.678,0.199-1.023c0.131-0.346,0.316-0.658,0.553-0.936c0.495-0.582,1.096-0.935,1.804-1.06 c0.344-0.061,0.672-0.056,0.983,0.015c0.312,0.07,0.579,0.208,0.801,0.412c0.516,0.425,0.773,0.996,0.773,1.711v9.152l3.717-0.655 c0.4-0.07,0.764-0.036,1.09,0.103c0.326,0.141,0.583,0.369,0.773,0.687c0.19,0.317,0.285,0.677,0.285,1.077 c-0.007,0.609-0.22,1.163-0.639,1.66c-0.419,0.496-0.922,0.796-1.509,0.899L18.661,56.023z"/><path d="M28.018,53.826c-0.501-0.412-0.752-0.984-0.752-1.715V40.907c0-0.716,0.249-1.363,0.746-1.942 c0.499-0.578,1.102-0.929,1.81-1.054c0.452-0.08,0.873-0.042,1.263,0.116c0.391,0.156,0.698,0.412,0.923,0.766 c0.226,0.354,0.338,0.767,0.338,1.24v11.225c0,0.338-0.062,0.676-0.188,1.018c-0.126,0.34-0.31,0.654-0.553,0.939 c-0.502,0.568-1.097,0.913-1.784,1.035C29.092,54.377,28.49,54.237,28.018,53.826z"/><path d="M33.239,51.476c0-0.387,0.007-0.667,0.021-0.842l1.805-10.877c0.092-0.633,0.316-1.208,0.671-1.725 c0.354-0.517,0.796-0.918,1.326-1.206c0.459-0.253,0.906-0.417,1.344-0.495c0.745-0.131,1.409-0.029,1.993,0.31 c0.583,0.337,0.975,0.854,1.176,1.548l1.622,5.278l1.633-5.852c0.222-0.776,0.625-1.435,1.209-1.975 c0.583-0.54,1.244-0.875,1.981-1.005c0.43-0.076,0.878-0.069,1.344,0.021c0.537,0.099,0.977,0.343,1.321,0.734 c0.343,0.391,0.569,0.888,0.676,1.492l1.783,10.245c0.029,0.167,0.043,0.443,0.043,0.83c-0.064,0.628-0.334,1.188-0.811,1.68 c-0.477,0.492-1.033,0.795-1.67,0.906c-0.28,0.05-0.559,0.057-0.838,0.02c-0.465-0.083-0.849-0.28-1.15-0.592 c-0.3-0.312-0.476-0.697-0.526-1.154l-0.773-6.244l-2.02,7.038c-0.158,0.571-0.345,1.015-0.563,1.329 c-0.219,0.314-0.492,0.555-0.822,0.72c-0.351,0.185-0.645,0.296-0.881,0.338c-0.487,0.086-0.913-0.007-1.278-0.279 c-0.365-0.272-0.641-0.718-0.827-1.337l-2.051-6.32l-0.752,6.514c-0.051,0.475-0.226,0.921-0.527,1.34 c-0.3,0.418-0.68,0.75-1.139,0.995c-0.287,0.137-0.565,0.229-0.837,0.276c-0.63,0.111-1.185,0.006-1.665-0.318 C33.576,52.545,33.303,52.082,33.239,51.476z"/><path d="M54.798,49.104c-0.501-0.413-0.752-0.985-0.752-1.716V36.185c0-0.716,0.249-1.363,0.746-1.942 c0.499-0.578,1.102-0.93,1.81-1.055c0.452-0.08,0.873-0.042,1.263,0.116c0.391,0.156,0.698,0.412,0.923,0.766 c0.226,0.354,0.339,0.768,0.339,1.24v11.226c0,0.337-0.063,0.675-0.188,1.017c-0.126,0.341-0.31,0.654-0.553,0.94 c-0.502,0.567-1.096,0.913-1.784,1.034C55.872,49.656,55.27,49.515,54.798,49.104z"/><path d="M59.6,34.991c0.014-0.411,0.118-0.8,0.312-1.167c0.193-0.368,0.455-0.675,0.785-0.923c0.329-0.248,0.687-0.405,1.074-0.474 l8.604-1.518c0.408-0.072,0.776-0.034,1.106,0.111c0.329,0.147,0.591,0.376,0.784,0.69c0.193,0.312,0.291,0.673,0.291,1.082 c-0.021,0.612-0.247,1.167-0.677,1.667c-0.43,0.499-0.931,0.798-1.503,0.898l-1.848,0.326V44.9c0,0.466-0.113,0.905-0.339,1.322 c-0.225,0.414-0.526,0.769-0.902,1.062c-0.376,0.291-0.796,0.479-1.262,0.561c-0.473,0.083-0.901,0.046-1.284-0.112 s-0.688-0.414-0.913-0.768c-0.226-0.354-0.338-0.762-0.338-1.219v-9.217l-1.741,0.307c-0.595,0.104-1.102-0.025-1.52-0.388 C59.81,36.085,59.6,35.599,59.6,34.991z"/><path d="M73.221,44.75c-0.135-0.292-0.204-0.603-0.204-0.932V33.022c0-0.479,0.11-0.937,0.333-1.369s0.527-0.797,0.914-1.09 c0.387-0.295,0.823-0.484,1.31-0.57l6.048-1.066c0.365-0.064,0.714-0.027,1.047,0.111c0.333,0.137,0.598,0.357,0.795,0.66 c0.196,0.302,0.295,0.661,0.295,1.076c0,0.408-0.099,0.802-0.295,1.18c-0.197,0.378-0.463,0.697-0.795,0.957 c-0.333,0.259-0.696,0.423-1.091,0.493l-3.48,0.614v1.343l2.869-0.506c0.308-0.055,0.611-0.046,0.913,0.026 c0.301,0.073,0.559,0.197,0.773,0.375c0.216,0.148,0.38,0.343,0.495,0.583c0.114,0.242,0.172,0.502,0.172,0.781 c0,0.587-0.229,1.14-0.688,1.657c-0.494,0.51-1.042,0.818-1.644,0.924l-2.89,0.51v1.386l3.31-0.584 c0.659-0.116,1.228,0.013,1.708,0.387c0.229,0.153,0.401,0.357,0.515,0.612c0.115,0.256,0.171,0.53,0.171,0.824 c0,0.608-0.221,1.163-0.666,1.664c-0.494,0.523-1.049,0.84-1.665,0.949l-5.919,1.043c-0.472,0.084-0.922,0.015-1.349-0.207 C73.778,45.562,73.45,45.217,73.221,44.75z"/><path d="M84.693,41.781V30.963c0-0.458,0.112-0.91,0.338-1.354c0.225-0.445,0.537-0.815,0.935-1.11 c0.397-0.297,0.825-0.484,1.283-0.565l3.48-0.613c1.225-0.216,2.337-0.278,3.336-0.185c0.998,0.091,1.869,0.333,2.61,0.721 c0.742,0.388,1.361,0.915,1.858,1.579c0.498,0.665,0.864,1.466,1.101,2.406c0.143,0.612,0.215,1.262,0.215,1.949 c-0.022,1.493-0.391,2.909-1.107,4.245c-0.716,1.336-1.71,2.458-2.981,3.367c-1.271,0.907-2.694,1.501-4.27,1.778l-4.264,0.752 c-0.694,0.123-1.291-0.028-1.789-0.452C84.942,43.056,84.693,42.49,84.693,41.781z M89.774,39.059l1.214-0.214 c0.752-0.133,1.417-0.398,1.993-0.797c0.577-0.399,1.026-0.892,1.349-1.479c0.322-0.587,0.483-1.209,0.483-1.868 c0-0.265-0.036-0.56-0.107-0.884c-0.165-0.802-0.595-1.392-1.289-1.771c-0.695-0.378-1.568-0.476-2.622-0.29l-1.021,0.18V39.059z"/><path d="M108.585,36.741c-0.322-0.401-0.593-0.839-0.812-1.313c-0.218-0.473-0.384-0.959-0.494-1.46 c-0.11-0.499-0.166-1.013-0.166-1.543c0-0.516,0.056-1.045,0.166-1.587c0.11-0.542,0.278-1.093,0.499-1.65 c0.223-0.559,0.491-1.091,0.807-1.598c0.515-0.843,1.139-1.601,1.869-2.274s1.53-1.231,2.4-1.675 c0.87-0.442,1.764-0.746,2.681-0.907c0.688-0.121,1.365-0.159,2.036-0.112c0.669,0.047,1.31,0.175,1.922,0.386 c0.613,0.211,1.172,0.494,1.677,0.849c0.505,0.355,0.946,0.783,1.326,1.281c0.98,1.245,1.472,2.684,1.472,4.317 c0,0.81-0.125,1.625-0.376,2.446c-0.25,0.82-0.616,1.617-1.096,2.389c-0.38,0.619-0.831,1.204-1.354,1.759 c-0.522,0.553-1.073,1.032-1.649,1.435s-1.209,0.752-1.896,1.048c-0.688,0.297-1.375,0.506-2.062,0.627 c-0.917,0.162-1.811,0.176-2.681,0.043s-1.672-0.41-2.406-0.833C109.715,37.945,109.094,37.403,108.585,36.741z M112.151,31.536 c0,0.709,0.152,1.327,0.456,1.853c0.305,0.526,0.713,0.904,1.226,1.133c0.512,0.228,1.072,0.289,1.681,0.181 c0.215-0.038,0.437-0.099,0.666-0.182c0.408-0.158,0.776-0.374,1.106-0.646c0.329-0.273,0.621-0.597,0.875-0.971 c0.254-0.374,0.449-0.775,0.586-1.204c0.136-0.429,0.204-0.876,0.204-1.342c0-0.222-0.021-0.454-0.064-0.697 c-0.107-0.604-0.317-1.104-0.628-1.501c-0.312-0.396-0.704-0.681-1.178-0.855c-0.472-0.175-0.987-0.213-1.546-0.114 c-0.623,0.11-1.192,0.37-1.708,0.78c-0.516,0.409-0.925,0.931-1.225,1.563C112.302,30.167,112.151,30.833,112.151,31.536z"/><path d="M127.598,37.105c-0.701,0.124-1.303-0.024-1.804-0.444c-0.501-0.421-0.752-0.981-0.752-1.683V23.87 c0-0.466,0.114-0.922,0.343-1.371c0.23-0.449,0.545-0.822,0.945-1.117c0.401-0.297,0.831-0.485,1.29-0.566l6.005-1.059 c0.615-0.109,1.152,0.026,1.611,0.403c0.422,0.348,0.634,0.83,0.634,1.446c0,0.58-0.226,1.157-0.678,1.73 c-0.479,0.508-1.01,0.812-1.59,0.915l-3.447,0.607v1.579l2.922-0.515c0.415-0.074,0.785-0.037,1.111,0.11 c0.326,0.146,0.586,0.374,0.779,0.684c0.193,0.31,0.289,0.665,0.289,1.066c-0.014,0.417-0.121,0.808-0.322,1.169 c-0.199,0.361-0.468,0.668-0.805,0.92c-0.337,0.253-0.695,0.413-1.074,0.479l-2.9,0.511v3.212c0,0.702-0.251,1.351-0.752,1.948 S128.3,36.981,127.598,37.105z"/><path d="M138.684,35.15c-0.701,0.124-1.303-0.024-1.804-0.445s-0.752-0.98-0.752-1.683V21.916c0-0.466,0.114-0.923,0.343-1.371 c0.23-0.449,0.545-0.822,0.945-1.117c0.401-0.297,0.831-0.485,1.29-0.566l6.005-1.059c0.615-0.108,1.152,0.026,1.611,0.403 c0.422,0.349,0.634,0.83,0.634,1.446c0,0.58-0.226,1.157-0.678,1.73c-0.479,0.507-1.01,0.812-1.59,0.914l-3.447,0.608v1.579 l2.922-0.515c0.415-0.073,0.785-0.037,1.111,0.11c0.326,0.146,0.586,0.375,0.779,0.684c0.193,0.31,0.289,0.665,0.289,1.066 c-0.015,0.417-0.121,0.807-0.322,1.169c-0.2,0.36-0.468,0.667-0.805,0.92c-0.337,0.252-0.695,0.413-1.074,0.479l-2.9,0.511v3.212 c0,0.702-0.251,1.351-0.752,1.948S139.386,35.026,138.684,35.15z"/><path d="M147.417,31.666c-0.136-0.292-0.204-0.602-0.204-0.931V19.939c0-0.479,0.111-0.937,0.333-1.369 c0.223-0.433,0.527-0.797,0.914-1.09c0.387-0.294,0.823-0.484,1.31-0.57l6.049-1.066c0.365-0.064,0.714-0.027,1.047,0.111 c0.333,0.138,0.599,0.357,0.795,0.66s0.296,0.661,0.296,1.076c0,0.408-0.1,0.802-0.296,1.18s-0.462,0.698-0.795,0.957 s-0.696,0.423-1.091,0.493l-3.48,0.614v1.343l2.869-0.506c0.308-0.055,0.611-0.045,0.912,0.026c0.302,0.073,0.56,0.197,0.773,0.375 c0.216,0.148,0.38,0.343,0.494,0.583c0.115,0.242,0.173,0.502,0.173,0.781c0,0.587-0.23,1.14-0.688,1.657 c-0.495,0.51-1.043,0.818-1.644,0.924l-2.891,0.51v1.386l3.31-0.584c0.659-0.116,1.229,0.013,1.708,0.387 c0.229,0.153,0.401,0.357,0.516,0.612c0.114,0.256,0.171,0.53,0.171,0.824c0,0.608-0.221,1.163-0.665,1.664 c-0.495,0.524-1.05,0.84-1.665,0.949l-5.92,1.044c-0.472,0.083-0.922,0.014-1.348-0.208 C147.974,32.479,147.646,32.134,147.417,31.666z"/><path d="M161.426,31.043c-0.694,0.108-1.291-0.046-1.789-0.464c-0.497-0.416-0.746-0.976-0.746-1.678V17.988 c0-0.559,0.105-1.059,0.317-1.5c0.211-0.442,0.506-0.802,0.886-1.08c0.38-0.279,0.838-0.465,1.375-0.56l4.823-0.85 c1.01-0.178,1.901-0.18,2.675-0.004c0.773,0.174,1.407,0.514,1.901,1.018c0.494,0.503,0.839,1.157,1.032,1.961 c0.114,0.495,0.171,0.947,0.171,1.355c0,1.468-0.497,2.726-1.493,3.776l-0.086,0.112l-0.505,0.486l-0.312,0.292l1.869,2.152 c0.365,0.415,0.549,0.92,0.549,1.515c0,0.394-0.092,0.788-0.274,1.182c-0.183,0.394-0.45,0.75-0.801,1.07 c-0.458,0.41-0.942,0.66-1.45,0.75c-0.917,0.162-1.693-0.189-2.331-1.05l-3.287-4.297v3.76c0,0.473-0.112,0.918-0.339,1.338 c-0.225,0.42-0.527,0.775-0.907,1.068C162.324,30.772,161.899,30.96,161.426,31.043z M163.972,20.766l2.116-0.374 c0.25-0.044,0.464-0.18,0.639-0.408c0.176-0.228,0.264-0.496,0.264-0.804c-0.008-0.242-0.093-0.431-0.258-0.566 c-0.164-0.136-0.351-0.186-0.559-0.148l-2.202,0.388V20.766z"/></g></svg>