<?xml version="1.0" encoding="UTF-8" standalone="no"?><svg xmlns="http://www.w3.org/2000/svg" xmlns:xlink="http://www.w3.org/1999/xlink" fill="#000000" height="44" preserveAspectRatio="xMidYMid meet" version="1" viewBox="0.0 0.0 33.4 44.0" width="33.4" zoomAndPan="magnify"><defs><clipPath id="a"><path d="M 0 0 L 33.378906 0 L 33.378906 44 L 0 44 Z M 0 0"/></clipPath></defs><g><g clip-path="url(#a)" id="change1_1"><path d="M 16.691406 30.34375 C 9.148438 30.34375 3.035156 24.230469 3.035156 16.691406 C 3.035156 9.148438 9.148438 3.035156 16.691406 3.035156 C 24.230469 3.035156 30.34375 9.148438 30.34375 16.691406 C 30.34375 24.230469 24.230469 30.34375 16.691406 30.34375 Z M 16.691406 0 C 7.472656 0 0 7.472656 0 16.691406 C 0 20.300781 1.171875 23.816406 3.335938 26.703125 L 16.082031 43.695312 C 16.335938 44.03125 16.808594 44.101562 17.144531 43.847656 C 17.203125 43.804688 17.253906 43.753906 17.296875 43.695312 L 30.039062 26.703125 C 35.574219 19.328125 34.078125 8.867188 26.703125 3.339844 C 23.816406 1.171875 20.300781 0 16.691406 0" fill="#b98e34"/></g><g id="change1_2"><path d="M 17.226562 20.238281 C 17.15625 20.269531 17.078125 20.285156 17 20.285156 C 16.921875 20.285156 16.84375 20.269531 16.773438 20.238281 L 11.378906 18.207031 L 10.136719 17.734375 L 10.136719 19.207031 C 10.140625 22.90625 13.136719 25.902344 16.832031 25.90625 L 17.128906 25.90625 C 20.828125 25.902344 23.824219 22.90625 23.828125 19.207031 L 23.828125 17.613281 L 22.585938 18.117188 L 17.226562 20.238281" fill="#b98e34"/></g><g id="change1_3"><path d="M 28.433594 12.859375 L 17.226562 8.457031 C 17.082031 8.40625 16.925781 8.40625 16.78125 8.457031 L 4.953125 12.859375 C 4.632812 12.976562 4.464844 13.335938 4.582031 13.65625 C 4.644531 13.828125 4.78125 13.964844 4.953125 14.027344 L 7.664062 15.035156 L 7.664062 19.671875 C 7.664062 20.015625 7.941406 20.292969 8.285156 20.292969 C 8.628906 20.292969 8.90625 20.015625 8.90625 19.671875 L 8.90625 15.5 L 10.148438 15.960938 L 10.148438 16.394531 L 11.394531 16.863281 L 16.992188 18.964844 L 22.597656 16.691406 L 23.84375 16.1875 L 23.84375 15.929688 C 23.847656 15.898438 23.847656 15.863281 23.84375 15.832031 L 28.449219 14.019531 C 28.769531 13.894531 28.925781 13.535156 28.804688 13.214844 C 28.742188 13.050781 28.609375 12.921875 28.449219 12.859375 L 28.433594 12.859375" fill="#b98e34"/></g></g></svg>